<svg width="16" height="16" viewBox="0 0 16 16" fill="none" xmlns="http://www.w3.org/2000/svg">
<path fill-rule="evenodd" clip-rule="evenodd" d="M1.67876 7.932C2.09076 7.311 2.92076 6.182 4.04476 5.215C5.17476 4.242 6.52676 3.5 7.99976 3.5C9.47276 3.5 10.8238 4.242 11.9548 5.215C13.0788 6.182 13.9088 7.311 14.3208 7.932C14.3347 7.95195 14.3421 7.97569 14.3421 8C14.3421 8.02431 14.3347 8.04805 14.3208 8.068C13.9088 8.689 13.0788 9.818 11.9548 10.785C10.8248 11.758 9.47276 12.5 7.99976 12.5C6.52676 12.5 5.17576 11.758 4.04476 10.785C2.91976 9.818 2.08976 8.69 1.67876 8.068C1.66487 8.04805 1.65742 8.02431 1.65742 8C1.65742 7.97569 1.66487 7.95195 1.67876 7.932ZM7.99976 2C6.01876 2 4.32976 2.992 3.06676 4.078C1.79676 5.169 0.879765 6.423 0.429765 7.1C0.252066 7.36615 0.157227 7.67898 0.157227 7.999C0.157227 8.31902 0.252066 8.63185 0.429765 8.898C0.879765 9.576 1.79676 10.83 3.06676 11.922C4.32876 13.008 6.01876 14 7.99976 14C9.98076 14 11.6698 13.008 12.9328 11.922C14.2028 10.831 15.1198 9.577 15.5698 8.899C15.7475 8.63285 15.8423 8.32002 15.8423 8C15.8423 7.67998 15.7475 7.36715 15.5698 7.101C15.1198 6.423 14.2028 5.169 12.9328 4.078C11.6708 2.992 9.98076 2 7.99976 2ZM7.99976 10C8.5302 10 9.0389 9.78929 9.41398 9.41421C9.78905 9.03914 9.99976 8.53043 9.99976 8C9.99976 7.46957 9.78905 6.96086 9.41398 6.58579C9.0389 6.21071 8.5302 6 7.99976 6C7.46933 6 6.96062 6.21071 6.58555 6.58579C6.21048 6.96086 5.99976 7.46957 5.99976 8C5.99976 8.53043 6.21048 9.03914 6.58555 9.41421C6.96062 9.78929 7.46933 10 7.99976 10Z" fill="black"/>
</svg>
