<svg width="16" height="16" fill="none" xmlns="http://www.w3.org/2000/svg"><path fill-rule="evenodd" clip-rule="evenodd" d="M1.679 7.932c.412-.621 1.242-1.75 2.366-2.717C5.175 4.242 6.527 3.5 8 3.5c1.473 0 2.824.742 3.955 1.715 1.124.967 1.954 2.096 2.366 2.717a.119.119 0 0 1 0 .136c-.412.621-1.242 1.75-2.366 2.717C10.825 11.758 9.473 12.5 8 12.5c-1.473 0-2.824-.742-3.955-1.715C2.92 9.818 2.09 8.69 1.679 8.068a.119.119 0 0 1 0-.136ZM7.999 2c-1.98 0-3.67.992-4.932 2.078C1.797 5.169.88 6.423.43 7.1a1.619 1.619 0 0 0 0 1.798c.45.678 1.367 1.932 2.637 3.024C4.329 13.008 6.019 14 8 14c1.98 0 3.67-.992 4.933-2.078 1.27-1.091 2.187-2.345 2.637-3.023a1.619 1.619 0 0 0 0-1.798c-.45-.678-1.367-1.932-2.637-3.023C11.67 2.992 9.98 2 8 2Zm0 8a2 2 0 1 0 0-4 2 2 0 0 0 0 4Z" fill="#000"/></svg>